HIERARCHY
ROOT Spine
{
    OFFSET 0.0 0.0 -0.0
    CHANNELS 6 Xposition Yposition Zposition Zrotation Xrotation Yrotation
    JOINT ShoulderCenter
    {
        OFFSET 0.0 32.14043045043945 0.0
        CHANNELS 3 Zrotation Xrotation Yrotation
        JOINT LeftShoulder
        {
            OFFSET 20.30788230895996 0.0 0.0
            CHANNELS 3 Zrotation Xrotation Yrotation
            JOINT LeftElbow
            {
                OFFSET 27.910465240478516 0.0 0.0
                CHANNELS 3 Zrotation Xrotation Yrotation
                JOINT LeftHand
                {
                    OFFSET 31.1745662689209 0.0 0.0
                    CHANNELS 3 Zrotation Xrotation Yrotation
                    End Site
                    {
                        OFFSET 12.469825744628906 0.0 0.0
                    }
                }
            }
        }
        JOINT RightShoulder
        {
            OFFSET -20.30788230895996 0.0 0.0
            CHANNELS 3 Zrotation Xrotation Yrotation
            JOINT RightElbow
            {
                OFFSET -27.910465240478516 0.0 0.0
                CHANNELS 3 Zrotation Xrotation Yrotation
                JOINT RightHand
                {
                    OFFSET -31.1745662689209 0.0 0.0
                    CHANNELS 3 Zrotation Xrotation Yrotation
                    End Site
                    {
                        OFFSET -12.469825744628906 0.0 0.0
                    }
                }
            }
        }
        End Site
        {
            OFFSET 0.0 12.856170654296875 0.0
        }
    }
    JOINT LeftHip
    {
        OFFSET 16.785262274537658 -16.785262274537658 0.0
        CHANNELS 3 Zrotation Xrotation Yrotation
        JOINT LeftKnee
        {
            OFFSET 0.0 -42.84436798095703 0.0
            CHANNELS 3 Zrotation Xrotation Yrotation
            JOINT LeftFoot
            {
                OFFSET 0.0 -44.21392822265625 0.0
                CHANNELS 3 Zrotation Xrotation Yrotation
                End Site
                {
                    OFFSET 0.0 0.0 17.685569763183594
                }
            }
        }
    }
    JOINT RightHip
    {
        OFFSET -16.785262274537658 -16.785262274537658 0.0
        CHANNELS 3 Zrotation Xrotation Yrotation
        JOINT RightKnee
        {
            OFFSET 0.0 -42.84436798095703 0.0
            CHANNELS 3 Zrotation Xrotation Yrotation
            JOINT RightFoot
            {
                OFFSET 0.0 -44.21392822265625 0.0
                CHANNELS 3 Zrotation Xrotation Yrotation
                End Site
                {
                    OFFSET 0.0 0.0 17.685569763183594
                }
            }
        }
    }
}
MOTION
Frames: 9
Frame Time: 0.03333333333333333
48.89999771118164 14.0 -9.199999809265137 0.535457696793325 3.209346185884124 0.45502451978521624 -9.84638534407663e-08 -3.7926647481257676e-07 -14.158981710982149 105.77169820988279 -19.44251815090881 178.78354865259135 5.544981256837294e-07 1.6658138817580395e-06 116.29529476929851 -6.3611093629270335e-15 -6.3611093629270335e-15 -6.3611093629270335e-15 -93.35955148894891 -6.443603217816315 -129.3787842410978 3.7261686658717296e-06 9.968776500616246e-07 -84.86168880831558 7.951386703658792e-16 -2.2069531490250793e-32 -3.1805546814635168e-15 -6.9287149190646815 15.232732652906567 -35.57436563181443 -7.587012512510225 14.315896731645815 -13.086423636233203 0.0 3.1805546814635176e-15 0.0 8.643198488187709 -38.11903313053666 -39.581725559067614 -28.916153799782116 16.17211756712175 54.49309123855523 4.224246261805816e-33 3.9756933518293955e-16 -1.2175560889977523e-15
48.79999923706055 14.5 0.10000000149011612 1.253139912396723 2.683134090999066 1.0480077495860423 -1.7944848365779357e-08 6.129167501700419e-08 -14.64710799668532 102.83043100843145 -21.788763762430413 173.6241075413524 1.8402251313831841e-06 -9.515910737285857e-07 115.52456714497762 -3.1805546814635168e-15 -6.3611093629270335e-15 -6.3611093629270335e-15 -92.94492659260239 -4.96868180636711 -130.44630685473965 -2.0592860379051902e-06 -3.3043637153336936e-06 -87.2418563354794 3.1805546814635168e-15 -4.4139062980501586e-32 -1.5902773407317584e-15 -6.781642534794319 14.028446718321936 -34.849838696883424 -12.440779113294356 22.11546171552113 -17.008682675776512 1.1034765745125397e-32 1.590277340731758e-15 -7.95138670365879e-16 6.3732702438302375 -33.38134240164945 -37.30797102564238 -17.03894554548743 10.262415894674259 27.94427635847974 0.0 0.0 -2.7332891793827095e-16
48.599998474121094 13.600000381469727 9.199999809265137 1.6059989141877593 2.496318309806809 1.0378281075294968 1.1416677769393588e-07 3.1112134264308e-08 -13.152919418512123 98.6970953893133 -24.122583289926848 167.49907892663353 1.7285259437111288e-07 4.161429486284106e-06 114.0078842108235 -3.1805546814635168e-15 -6.3611093629270335e-15 -3.1805546814635168e-15 -91.60477747087933 -4.007412494931075 -133.24209013430672 -1.8908290827976433e-06 5.461271886465669e-07 -89.32065475480861 -1.5902773407317582e-15 -4.770832022195275e-15 3.1805546814635168e-15 -5.342927137521156 10.12787039839367 -32.39178902790214 -20.39202611273158 32.233756342616736 -19.728810893880908 0.0 0.0 3.1805546814635164e-15 5.650686650387065 -29.965865232419386 -33.376830720213654 -12.680355833828559 7.758903158591711 20.32962691550735 7.951386703658791e-16 1.6399735076296255e-15 2.484808344893372e-16
48.599998474121094 11.5 18.0 2.3263606834376147 2.8600508102644175 1.2964325870892937 -1.0113213987828863e-07 -4.388238195928639e-08 -12.060857037736023 94.71001778200916 -24.234038016858978 161.54185973196368 6.940141548959029e-07 2.2410193452781628e-07 110.98607368431944 -6.361109362927033e-15 1.7655625192200634e-31 -3.1805546814635164e-15 -90.87769493168892 -4.58116068434658 -139.2330220383679 -1.5787591371851353e-06 -3.0990948934560947e-06 -91.00656059558202 7.951386703658793e-15 -2.2069531490250793e-31 -3.1805546814635176e-15 -3.7209960566298985 3.1261690904947006 -26.81846688390748 -30.41641893283997 45.761856970385615 -21.866619054998704 3.1805546814635164e-15 -4.4139062980501586e-32 -1.5902773407317582e-15 4.944926548116468 -27.098965825415675 -27.524013100104177 -12.089998818119717 8.627850296926946 23.679082319566785 1.987846675914698e-16 2.155227684594804e-34 1.2424041724466862e-16
48.5 8.699999809265137 26.80000114440918 2.4973016067292844 3.561841320158141 -0.6409080900124888 -1.2805854142429378e-07 -3.8988224291952216e-08 -8.073942265381154 93.62833243784287 -23.755921178785634 156.02680984862198 -7.503096999809559e-07 3.1733350796390483e-06 106.80672806855726 3.180554681463516e-15 -6.361109362927032e-15 1.7655625192200634e-31 -91.46754673680311 -7.140913421191403 -149.14293607957177 5.6098845544707495e-06 2.2478806297147286e-06 -92.42141531412408 -6.3611093629270335e-15 -3.1805546814635168e-15 3.1805546814635168e-15 -0.8324423064023381 -5.577492424876457 -14.549467454753106 -38.46214282292548 62.462433335554394 -24.634796418611742 3.1805546814635168e-15 8.827812596100317e-32 3.1805546814635168e-15 6.186567709107037 -26.86780386586515 -23.831012613298235 -13.864684389509152 15.682200100624618 39.34380099272854 3.975693351829396e-16 -7.327774127622334e-34 -2.1120870931593667e-16
48.79999923706055 6.0 34.900001525878906 4.1239063121592485 5.890955457119102 -5.1316623256370795 -3.1222669422490467e-07 -4.246433785907839e-07 -3.0013058136617428 92.57653533157621 -20.547112674126186 153.091747219394 7.246614318151239e-07 2.2857111198921868e-06 100.23668221716642 1.1131941385122307e-14 -6.3611093629270335e-15 -6.361109362927032e-15 -96.06149548816335 -12.219289184357857 -164.7397481340851 4.4525082600086025e-06 2.2298210760230258e-06 -94.71864316058735 0.0 0.0 -3.1805546814635168e-15 2.216351103921693 -18.009762128660476 15.259874033887314 42.990761106205504 81.73602573193413 -116.11589419261396 3.1805546814635164e-15 8.827812596100317e-32 3.1805546814635164e-15 8.814720657248605 -27.870050666394732 -15.300833127058148 -18.159391601915686 23.004766490922997 48.326717285128396 -9.267479043757658e-34 -9.93923337957349e-17 -1.0684675883041502e-15
48.89999771118164 5.200000286102295 43.099998474121094 4.316023780434275 7.149242874175389 -9.343162713145233 -5.2221977963200993e-08 -5.303945839812065e-07 0.9389706367346684 92.9810596428816 -14.715871024659094 148.0079867204095 -1.3982740888072898e-06 3.9808113446708474e-07 94.2906200620474 -9.541664044390549e-15 0.0 0.0 -102.15265182966445 -17.136579525165647 178.53657781448518 3.6718665300178773e-06 -4.722885238566145e-06 -96.49056977333602 6.361109362927032e-15 0.0 0.0 5.204942536934843 -28.790050387808737 44.893519350567345 93.62053434492749 57.743341050451065 -166.02820604173283 3.1805546814635168e-15 8.827812596100317e-32 3.1805546814635168e-15 9.710036157832851 -24.69301909832155 -9.23206193774838 -17.27541063257897 25.721287224797134 51.15108211055124 0.0 0.0 -1.292100339344554e-15
49.099998474121094 5.699999809265137 51.599998474121094 4.495139943210015 6.970633307427873 -9.654955807276538 1.330189533155892e-07 -6.425628596965962e-07 2.197391560642008 93.06547984986312 -11.371776287523312 142.85045058850935 9.718184218652098e-07 1.9968408077224437e-06 90.43278636832164 -5.565970692561156e-15 0.0 0.0 -107.6077495138308 -18.169210411959224 167.5534254279559 -2.985675586447037e-06 -1.8053854426487684e-06 -101.84618464472383 0.0 0.0 6.3611093629270335e-15 4.028480618532668 -38.57611759821193 57.182468200079235 95.16314279746013 42.4264614764612 -163.4581403171993 3.1805546814635168e-15 -3.180554681463516e-15 9.541664044390549e-15 7.6808686366059415 -17.488217864550965 -1.3307597032642295 -11.826076410062825 25.237096997623134 46.064164619472315 -7.951386703658792e-16 -1.6552148617688095e-32 2.3854160110976376e-15
49.20000076293945 7.599999904632568 60.60000228881836 3.766391923727261 6.070746892877017 -8.626578928548815 1.5348570020032385e-07 -6.615754809191906e-07 3.4591801570257075 94.14591597317596 -10.429070174082172 137.72265406823757 2.8671877817025015e-06 -4.960437055991759e-07 90.23740695082371 0.0 -3.1805546814635176e-15 0.0 -109.0208457148282 -16.93760526218178 162.54162959870513 -2.0040828331621398e-06 -1.7678045903192429e-06 -108.20755252225122 1.7655625192200634e-31 -6.3611093629270335e-15 3.1805546814635168e-15 -1.3722414814658341 -44.310083609284725 51.537069015261984 87.07208299067138 40.166250934018485 -151.17956818717545 3.1805546814635168e-15 1.5902773407317584e-15 -3.1805546814635168e-15 5.7282470705795845 -7.82853766495777 11.603595516181109 -4.269264188730952 21.45409307127283 35.73968887104953 1.5902773407317582e-15 3.9756933518293955e-16 9.939233379573488e-16
